<?xml version="1.0" encoding="UTF-8"?>
<!DOCTYPE svg PUBLIC "-//W3C//DTD SVG 1.1//EN" "http://www.w3.org/Graphics/SVG/1.1/DTD/svg11.dtd">
<!-- Creator: CorelDRAW -->
<svg xmlns="http://www.w3.org/2000/svg" xml:space="preserve" width="210mm" height="297mm" version="1.1" style="shape-rendering:geometricPrecision; text-rendering:geometricPrecision; image-rendering:optimizeQuality; fill-rule:evenodd; clip-rule:evenodd"
viewBox="0 0 21000 29700"
 xmlns:xlink="http://www.w3.org/1999/xlink"
 xmlns:xodm="http://www.corel.com/coreldraw/odm/2003">
 <defs>
  <style type="text/css">
   <![CDATA[
    .str0 {stroke:#FEFEFE;stroke-width:20;stroke-miterlimit:22.9256}
    .fil2 {fill:black}
    .fil0 {fill:white}
    .fil1 {fill:#FFCC00;fill-rule:nonzero}
   ]]>
  </style>
 </defs>
 <g id="Camada_x0020_1">
  <metadata id="CorelCorpID_0Corel-Layer"/>
  <g id="_2016582334528">
   <rect class="fil0 str0" x="9953.14" y="14309.88" width="1083.58" height="1083.58"/>
   <path class="fil1" d="M10281.98 15022.69l169.11 -167.03 -152.51 -147.83 93.42 0.31 104.23 102.94 104.23 -102.94 90.27 0 -149.36 147.52 -45.14 44.58 -169.58 167.49 -44.67 -45.04zm0 0l-44.77 44.95 -220.16 -217.44c0,0.49 -0.01,0.98 -0.01,1.47 0,130.35 53.49,248.37 139.98,333.79 89.39,88.28 210.51,138.24 337.01,138.24 127.6,0.19 248.68,-49.13 338.9,-138.24 68.48,-67.64 116.27,-155.7 133.2,-254.14l70.66 -69.79c-2.63,143.88 -62.74,273.9 -158.62,368.6 -98.07,96.86 -233.55,156.77 -383.19,156.77 -149.64,0 -285.12,-59.91 -383.19,-156.77 -98.07,-96.86 -158.73,-230.66 -158.73,-378.46 0,-147.8 60.66,-281.6 158.73,-378.46 98.07,-96.86 233.55,-156.77 383.19,-156.77 149.64,0 285.12,59.91 383.19,156.77 52.13,51.49 93.68,113.42 121.18,182.33l-49.99 49.37c-23.6,-71.33 -63.93,-135.18 -116.43,-187.02 -86.48,-85.43 -205.97,-138.26 -337.95,-138.26 -131.98,0 -251.47,52.83 -337.96,138.26 -67.62,66.79 -115.08,153.5 -132.56,250.47l257.52 254.33zm426.84 -2.96l309.97 -306.18c6.56,24.31 13.29,51.13 16.34,76.68l-279.16 275.71 -47.15 -46.21z"/>
   <path class="fil2" d="M10494.1 14381.5l237.82 235.45 -46.64 46.41 -191.89 -189.16 -171.06 166.21 69.67 67.73 -93.42 -0.31 -68.03 -67.35 263.55 -258.98zm-212.12 641.19l-44.77 44.95 256.82 256.07 261.94 -257.77 -213.89 -210.98 -45.85 45.28 166.69 164.64 -171.31 168.72 -209.63 -210.91z"/>
  </g>
 </g>
</svg>
